# AST/ASF file generated using VICON BodyLanguage
# -----------------------------------------------
:version 1.10
:name VICON
:units
  mass 1.0
  length 0.45
  angle deg
:documentation
   .ast/.asf automatically generated from VICON data using
   VICON BodyBuilder and BodyLanguage model FoxedUp or BRILLIANT.MOD
:root
   order TX TY TZ RX RY RZ
   axis XYZ
   position 0 0 0  
   orientation 0 0 0 
:bonedata
  begin
     id 1 
     name lhipjoint
     direction 0.576517 -0.752066 0.319413 
     length 2.45433 
     axis 0 0 0  XYZ
  end
  begin
     id 2 
     name lfemur
     direction 0.34202 -0.939693 0  
     length 7.54459  
     axis 0 0 20  XYZ
    dof rx ry rz
    limits (-160.0 20.0)
           (-70.0 70.0)
           (-60.0 70.0)
  end
  begin
     id 3 
     name ltibia
     direction 0.34202 -0.939693 0   
     length 7.73986   
     axis 0 0 20   XYZ
    dof rx
    limits (-10.0 170.0)
  end
  begin
     id 4 
     name lfoot
     direction 0.090693 -0.249177 0.964202   
     length 2.28437   
     axis -90 7.62852e-016 20   XYZ
    dof rx rz
    limits (-45.0 90.0)
           (-70.0 20.0)
  end
  begin
     id 5 
     name ltoes
     direction 1.5356e-011 -4.21928e-011 1   
     length 1.14243   
     axis -90 7.62852e-016 20   XYZ
    dof rx
    limits (-90.0 20.0)
  end
  begin
     id 6 
     name rhipjoint
     direction -0.573937 -0.753736 0.320122   
     length 2.44889  
     axis 0 0 0  XYZ 
  end
  begin
     id 7 
     name rfemur
     direction -0.34202 -0.939693 0   
     length 7.50166   
     axis 0 0 -20   XYZ
    dof rx ry rz
    limits (-160.0 20.0)
           (-70.0 70.0)
           (-70.0 60.0)
  end
  begin
     id 8 
     name rtibia
     direction -0.34202 -0.939693 0   
     length 7.54266   
     axis 0 0 -20   XYZ
    dof rx
    limits (-10.0 170.0)
 end
 begin
     id 9 
     name rfoot
     direction -0.114017 -0.31326 0.942798   
     length 2.34212  
     axis -90 -7.62852e-016 -20   XYZ
    dof rx rz
    limits (-45.0 90.0)
           (-20.0 70.0)
  end
  begin
     id 10 
     name rtoes
     direction -1.53557e-011 -4.21867e-011 1   
     length 1.16246   
     axis -90 -7.62852e-016 -20   XYZ
    dof rx
    limits (-90.0 20.0)
  end
  begin
     id 11 
     name lowerback
     direction -0.0228371 0.999155 -0.034167   
     length 2.0537   
     axis 0 0 0   XYZ
    dof rx ry rz
    limits (-20.0 45.0)
           (-30.0 30.0)
           (-30.0 30.0)
  end
  begin
     id 12 
     name upperback
     direction 0.0198981 0.999794 0.00389455   
     length 2.05302   
     axis 0 0 0   XYZ
    dof rx ry rz
    limits (-20.0 45.0)
           (-30.0 30.0)
           (-30.0 30.0)
  end
  begin
     id 13 
     name thorax
     direction 0.0304566 0.99935 0.0192987   
     length 2.05315   
     axis 0 0 0   XYZ
    dof rx ry rz
    limits (-20.0 45.0)
           (-30.0 30.0)
           (-30.0 30.0)
  end
  begin
     id 14 
     name lowerneck
     direction -0.0196762 0.99417 0.106017   
     length 1.82056   
     axis 0 0 0   XYZ
    dof rx ry rz
    limits (-20.0 45.0)
           (-30.0 30.0)
           (-30.0 30.0)
  end
  begin
     id 15 
     name upperneck
     direction 0.00517787 0.9802 -0.197944   
     length 1.83835   
     axis 0 0 0   XYZ
    dof rx ry rz
    limits (-20.0 45.0)
           (-30.0 30.0)
           (-30.0 30.0)
  end
  begin
     id 16
     name head
     direction 0.00211419 0.996945 -0.078081  
     length 1.85629  
     axis 0 0 0   XYZ
    dof rx ry rz
    limits (-20.0 45.0)
           (-30.0 30.0)
           (-30.0 30.0)
  end
  begin
     id 17 
     name lclavicle
     direction 0.930001 0.365811 -0.0357824  
     length 3.81961  
     axis 0 0 0   XYZ
    dof ry rz
    limits (-20.0 10.0)
           (0.0 20.0)
  end
  begin
     id 18 
     name lhumerus
     direction 1 -4.48968e-011 -3.06644e-027   
     length 5.14507   
     axis 180 -30 -90   XYZ
    dof rx ry rz
    limits (-60.0 90.0)
           (-90.0 90.0)
           (-90.0 90.0)
  end
  begin
     id 19
     name lradius
     direction 1 -4.48965e-011 9.06925e-028   
     length 3.50646   
     axis 180 -30 -90   XYZ
    dof rx
    limits (-10.0 170.0)
  end
  begin
     id 20
     name lwrist
     direction 1 -4.48957e-011 1.03922e-027   
     length 1.75323   
     axis -2.56395e-016 90 90   XYZ
    dof ry
    limits (-180.0 0.0)
 end
  begin
     id 21 
     name lhand
     direction 1 -4.48967e-011 2.08017e-027   
     length 0.629969   
     axis -1.32723e-015 90 90   XYZ
    dof rx rz
    limits (-90.0 90.0)
           (-45.0 45.0)
  end
  begin
     id 22 
     name lfingers
     direction 1 -4.49089e-011 4.20095e-027   
     length 0.507897   
     axis -2.6545e-015 90 90   XYZ
    dof rx
    limits (0.0 90.0)
  end
  begin
     id 23
     name lthumb
     direction 0.707107 -6.35001e-011 0.707107   
     length 0.729241   
     axis -90 45 5.05613e-014   XYZ
    dof rx rz
    limits (-45.0 45.0)
           (-45.0 45.0)
  end
  begin
     id 24 
     name rclavicle
     direction -0.881882 0.464123 -0.0829113   
     length 3.47515  
     axis 0 0 0   XYZ 
    dof ry rz
    limits (-10.0 20.0)
           (-20.0 0.0)
  end
  begin
     id 25 
     name rhumerus
     direction -1 -4.48961e-011 -1.55672e-027  
     length 5.232   
     axis 180 30 90   XYZ
    dof rx ry rz
    limits (-90.0 60.0)
           (-90.0 90.0)
           (-90.0 90.0)
  end
  begin
     id 26 
     name rradius
     direction -1 -4.48963e-011 6.18178e-029   
     length 3.65641   
     axis 180 30 90   XYZ
    dof rx
    limits (-10.0 170.0)
  end
  begin
     id 27 
     name rwrist
     direction -1 -4.48982e-011 1.04136e-027   
     length 1.8282   
     axis -2.56395e-016 -90 -90   XYZ
    dof ry
    limits (-180.0 0.0)
  end
  begin
     id 28
     name rhand
     direction -1 -4.48929e-011 2.07378e-027   
     length 0.656807   
     axis -1.32723e-015 -90 -90   XYZ
    dof rx rz
    limits (-90.0 90.0)
           (-45.0 45.0)
  end
  begin
     id 29
     name rfingers
     direction -1 -4.489e-011 4.13816e-027   
     length 0.529535   
     axis -2.6545e-015 -90 -90   XYZ
    dof rx
    limits (0.0 90.0)
  end
  begin
     id 30
     name rthumb
     direction -0.707107 -6.34843e-011 0.707107   
     length 0.760309   
     axis -90 -45 -5.05613e-014   XYZ
    dof rx rz
    limits (-45.0 45.0)
           (-45.0 45.0)
  end
:hierarchy
  begin
    root lhipjoint rhipjoint lowerback
    lhipjoint lfemur
    lfemur ltibia
    ltibia lfoot
    lfoot ltoes
    rhipjoint rfemur
    rfemur rtibia
    rtibia rfoot
    rfoot rtoes
    lowerback upperback
    upperback thorax
    thorax lowerneck lclavicle rclavicle
    lowerneck upperneck
    upperneck head
    lclavicle lhumerus
    lhumerus lradius
    lradius lwrist
    lwrist lhand lthumb
    lhand lfingers
    rclavicle rhumerus
    rhumerus rradius
    rradius rwrist
    rwrist rhand rthumb
    rhand rfingers
  end

#!OML:ASF H:\ManfredETheater\Project 1\Capture day 1\Session 1\subject.ASF
:FULLY-SPECIFIED
:DEGREES
16
root -1.24405 15.2527 32.7905 -160.719 -6.87883 -188.698
lowerback 20.5734 -2.44987 -5.35311
upperback -0.89263 -4.87192 -1.09681
thorax -12.2405 -2.02928 3.31279
lowerneck -18.6137 -2.5762 -2.40191
upperneck -0.0677686 -2.52726 3.23053
head 3.36808 -0.864081 1.3148
rclavicle 2.09842e-014 1.59525e-014
rhumerus -55.8318 -2.51269 -82.236
rradius 57.531
rwrist -8.21394
rhand -23.0128 -3.21421
rfingers 7.12502
rthumb 3.43073 -33.1663
lclavicle 2.09842e-014 1.59525e-014
lhumerus -46.3247 -12.9981 93.546
lradius 82.2436
lwrist 9.5152
lhand -25.9324 -13.2205
lfingers 7.12502
lthumb 0.611005 16.7584
rfemur -39.7019 -13.9574 15.5207
rtibia 95.1467
rfoot -7.79765 -10.754
rtoes -28.4257
lfemur -45.3257 -0.345674 -29.5306
ltibia 70.7485
lfoot -32.9494 -10.4292
ltoes 3.31651
17
root -1.23757 15.2147 32.3008 -160.831 -7.31791 -189.204
lowerback 20.615 -2.69763 -5.60917
upperback -0.855986 -5.28274 -1.16905
thorax -12.1723 -2.21402 3.49791
lowerneck -18.658 -2.50287 -2.38123
upperneck -0.0468013 -2.43732 3.28606
head 3.38211 -0.816421 1.33798
rclavicle 4.73853e-014 1.81391e-015
rhumerus -56.8875 -3.24539 -80.9769
rradius 53.5432
rwrist -7.44644
rhand -22.7806 -2.94545
rfingers 7.12502
rthumb 3.65493 -32.8939
lclavicle 4.73853e-014 1.81391e-015
lhumerus -44.1356 -12.8903 94.249
lradius 82.776
lwrist 9.2092
lhand -26.1117 -13.0441
lfingers 7.12502
lthumb 0.437838 16.9352
rfemur -44.501 -14.2904 15.2829
rtibia 97.1438
rfoot -9.61948 -12.1445
rtoes -27.7976
lfemur -42.8312 -0.50129 -29.5704
ltibia 70.3782
lfoot -33.8976 -11.0405
ltoes 2.69421
18
root -1.23092 15.1854 31.7977 -160.958 -7.73844 -189.56
lowerback 20.5409 -2.95311 -5.75533
upperback -0.83494 -5.6565 -1.1877
thorax -12.0604 -2.38679 3.66037
lowerneck -18.6992 -2.40918 -2.34294
upperneck 0.0146293 -2.32585 3.2759
head 3.4075 -0.763196 1.33765
rclavicle 1.69215e-014 1.2921e-014
rhumerus -58.1675 -3.64345 -79.7316
rradius 50.0605
rwrist -6.26967
rhand -22.4366 -2.36218
rfingers 7.12502
rthumb 3.98719 -32.3046
lclavicle 1.69215e-014 1.2921e-014
lhumerus -42.3627 -12.9526 95.1007
lradius 84.0488
lwrist 9.34906
lhand -26.0962 -12.8784
lfingers 7.12502
lthumb 0.452794 17.1008
rfemur -49.1633 -14.4091 15.1826
rtibia 98.3263
rfoot -11.0714 -13.3622
rtoes -27.4007
lfemur -40.1599 -0.512056 -29.4481
ltibia 69.7323
lfoot -34.7421 -11.6657
ltoes 2.02801
19
root -1.2231 15.1705 31.278 -161.099 -8.14648 -189.839
lowerback 20.3535 -3.2097 -5.87399
upperback -0.819473 -6.00678 -1.16133
thorax -11.8878 -2.55105 3.83908
lowerneck -18.7452 -2.30236 -2.30618
upperneck 0.0878125 -2.19466 3.20795
head 3.43629 -0.703706 1.31978
rclavicle 3.15943e-014 1.31943e-014
rhumerus -59.6764 -3.74621 -78.5074
rradius 47.194
rwrist -4.82725
rhand -22.0945 -1.48085
rfingers 7.12502
rthumb 4.31756 -31.4168
lclavicle 3.15943e-014 1.31943e-014
lhumerus -40.9541 -13.2638 96.0929
lradius 85.9805
lwrist 9.93301
lhand -25.9516 -12.7543
lfingers 7.12502
lthumb 0.592489 17.2246
rfemur -53.5517 -14.3671 15.1026
rtibia 98.6454
rfoot -12.165 -14.2909
rtoes -27.2272
lfemur -37.2626 -0.458116 -29.21
ltibia 68.7307
lfoot -35.4098 -12.3517
ltoes 1.39133
